<svg width="21" height="20" viewBox="0 0 21 20" fill="none" xmlns="http://www.w3.org/2000/svg">
<path d="M10.5 0C4.69875 0 0 4.59118 0 10.2539C0 14.7853 3.00825 18.6279 7.17937 19.9823C7.70437 20.0788 7.89687 19.7618 7.89687 19.4892C7.89687 19.2457 7.88813 18.6006 7.88375 17.7461C4.963 18.3647 4.347 16.3703 4.347 16.3703C3.86925 15.1869 3.17887 14.8707 3.17887 14.8707C2.22775 14.235 3.25238 14.2478 3.25238 14.2478C4.30675 14.3196 4.86062 15.3039 4.86062 15.3039C5.79688 16.8719 7.3185 16.4191 7.91875 16.1567C8.01325 15.4936 8.28363 15.0416 8.58375 14.7853C6.25188 14.5289 3.801 13.6471 3.801 9.71813C3.801 8.59875 4.20788 7.68444 4.88163 6.96667C4.7635 6.70776 4.40912 5.66528 4.9735 4.2528C4.9735 4.2528 5.85288 3.97766 7.861 5.30383C8.701 5.07568 9.5935 4.96289 10.486 4.95776C11.3785 4.96289 12.271 5.07568 13.111 5.30383C15.106 3.97766 15.9854 4.2528 15.9854 4.2528C16.5497 5.66528 16.1954 6.70776 16.0904 6.96667C16.7598 7.68444 17.1666 8.59875 17.1666 9.71813C17.1666 13.6573 14.7122 14.5246 12.376 14.7767C12.7435 15.0843 13.0848 15.7132 13.0848 16.6737C13.0848 18.046 13.0716 19.1483 13.0716 19.4816C13.0716 19.7507 13.2554 20.0711 13.7935 19.9686C17.9944 18.6236 21 14.7784 21 10.2539C21 4.59118 16.2986 0 10.5 0Z" fill="#fff"/>
</svg>
