<svg width="21" height="20" viewBox="0 0 21 20" fill="none" xmlns="http://www.w3.org/2000/svg">
<path id="Shape" fill-rule="evenodd" clip-rule="evenodd" d="M0 2.32323C0 1.64982 0.236493 1.09426 0.709459 0.656565C1.18243 0.218848 1.7973 0 2.55405 0C3.2973 0 3.89864 0.215474 4.35811 0.646464C4.83107 1.09091 5.06757 1.67002 5.06757 2.38383C5.06757 3.0303 4.83784 3.569 4.37838 3.99999C3.90541 4.44444 3.28378 4.66666 2.51351 4.66666H2.49324C1.74999 4.66666 1.14866 4.44444 0.689189 3.99999C0.229723 3.55555 0 2.99662 0 2.32323ZM0.263514 20V6.50504H4.76351V20H0.263514ZM11.7568 20H7.25676C7.28378 15.9326 7.2973 12.7744 7.2973 10.5252C7.2973 8.27607 7.28378 6.93601 7.25676 6.50504H11.7568V8.42423L11.7365 8.46463H11.7568V8.42423C12.7297 6.92928 14.0878 6.18181 15.8311 6.18181C17.3851 6.18181 18.6351 6.69696 19.5811 7.72726C20.527 8.75756 21 10.2693 21 12.2626V20H16.5V12.7879C16.5 10.7542 15.7432 9.73736 14.2297 9.73736C13.6486 9.73736 13.1655 9.8956 12.7804 10.2121C12.3953 10.5286 12.1081 10.9158 11.9189 11.3737C11.8108 11.6296 11.7568 11.9932 11.7568 12.4646V20Z" fill="#603BCA"/>
</svg>
