<svg width="20" height="20" viewBox="0 0 20 20" fill="none" xmlns="http://www.w3.org/2000/svg">
<g id="instagram (1) copy">
<path id="Shape" fill-rule="evenodd" clip-rule="evenodd" d="M5.8775 0.06C6.94417 0.0125 7.28333 0 10 0C12.7167 0 13.0558 0.01 14.1225 0.06C15.1867 0.109167 15.9125 0.2775 16.55 0.525C17.2092 0.779167 17.7658 1.1225 18.3217 1.67833C18.8767 2.23417 19.22 2.7925 19.475 3.45C19.7217 4.08667 19.89 4.81333 19.94 5.8775C19.9875 6.94417 20 7.28333 20 10C20 12.7167 19.99 13.0558 19.94 14.1225C19.8908 15.1867 19.7217 15.9125 19.475 16.55C19.2208 17.2092 18.8767 17.7658 18.3217 18.3217C17.7658 18.8767 17.2067 19.22 16.55 19.475C15.9125 19.7217 15.1867 19.89 14.1225 19.94C13.0558 19.9875 12.7167 20 10 20C7.28333 20 6.94417 19.99 5.8775 19.94C4.81333 19.8908 4.08833 19.7217 3.45 19.475C2.79167 19.2208 2.23417 18.8767 1.67833 18.3217C1.1225 17.7658 0.78 17.2067 0.525 16.55C0.2775 15.9125 0.11 15.1867 0.06 14.1225C0.0125 13.0558 0 12.7167 0 10C0 7.28333 0.01 6.94417 0.06 5.8775C0.109167 4.8125 0.2775 4.0875 0.525 3.45C0.779167 2.79167 1.1225 2.23417 1.67833 1.67833C2.23417 1.1225 2.7925 0.78 3.45 0.525C4.0875 0.2775 4.8125 0.11 5.8775 0.06ZM15.3383 5.8625C16 5.8625 16.5383 5.325 16.5383 4.6625C16.5383 4.00083 15.9992 3.4625 15.3383 3.46333C14.6767 3.46333 14.1383 4.00083 14.1383 4.6625C14.1383 5.32417 14.6758 5.8625 15.3383 5.8625ZM10 4.865C7.1625 4.865 4.865 7.165 4.865 10C4.865 12.8375 7.165 15.135 10 15.135C12.8375 15.135 15.135 12.835 15.135 10C15.135 7.1625 12.835 4.865 10 4.865ZM6.66667 10C6.66667 11.8417 8.15833 13.3333 10 13.3333C11.8417 13.3333 13.3333 11.8417 13.3333 10C13.3333 8.15833 11.8417 6.66667 10 6.66667C8.15833 6.66667 6.66667 8.15833 6.66667 10Z" fill="#1E1B2C"/>
</g>
</svg>
