<svg width="1440" height="117" viewBox="0 0 1440 117" fill="none" xmlns="http://www.w3.org/2000/svg">
<path d="M-1129 0.799992V117H-1161.2L-1205.36 64.212V117H-1243.54V0.799992H-1211.33L-1167.18 53.588V0.799992H-1129ZM-992.262 0.799992V117H-1024.47L-1068.62 64.212V117H-1106.8V0.799992H-1074.6L-1030.44 53.588V0.799992H-992.262ZM-855.526 0.799992V117H-887.73L-931.886 64.212V117H-970.066V0.799992H-937.862L-893.706 53.588V0.799992H-855.526ZM-718.79 0.799992V117H-750.994L-795.15 64.212V117H-833.33V0.799992H-801.126L-756.97 53.588V0.799992H-718.79ZM-582.054 0.799992V117H-614.258L-658.414 64.212V117H-696.594V0.799992H-664.39L-620.234 53.588V0.799992H-582.054ZM-445.318 0.799992V117H-477.522L-521.678 64.212V117H-559.858V0.799992H-527.654L-483.498 53.588V0.799992H-445.318ZM-308.582 0.799992V117H-340.786L-384.942 64.212V117H-423.122V0.799992H-390.918L-346.762 53.588V0.799992H-308.582ZM-171.846 0.799992V117H-204.05L-248.206 64.212V117H-286.386V0.799992H-254.182L-210.026 53.588V0.799992H-171.846ZM-35.1098 0.799992V117H-67.3138L-111.47 64.212V117H-149.65V0.799992H-117.446L-73.2898 53.588V0.799992H-35.1098ZM101.626 0.799992V117H69.4222L25.2661 64.212V117H-12.9139V0.799992H19.2901L63.4461 53.588V0.799992H101.626ZM238.362 0.799992V117H206.158L162.002 64.212V117H123.822V0.799992H156.026L200.182 53.588V0.799992H238.362ZM375.098 0.799992V117H342.894L298.738 64.212V117H260.558V0.799992H292.762L336.918 53.588V0.799992H375.098ZM511.834 0.799992V117H479.63L435.474 64.212V117H397.294V0.799992H429.498L473.654 53.588V0.799992H511.834ZM648.57 0.799992V117H616.366L572.21 64.212V117H534.03V0.799992H566.234L610.39 53.588V0.799992H648.57ZM785.306 0.799992V117H753.102L708.946 64.212V117H670.766V0.799992H702.97L747.126 53.588V0.799992H785.306ZM922.042 0.799992V117H889.838L845.682 64.212V117H807.502V0.799992H839.706L883.862 53.588V0.799992H922.042ZM1058.78 0.799992V117H1026.57L982.418 64.212V117H944.238V0.799992H976.442L1020.6 53.588V0.799992H1058.78ZM1312.8 0.799992V117H1280.59L1236.44 64.212V117H1198.26V0.799992H1230.46L1274.62 53.588V0.799992H1312.8ZM1449.53 0.799992V117H1417.33L1373.17 64.212V117H1334.99V0.799992H1367.2L1411.35 53.588V0.799992H1449.53ZM1586.27 0.799992V117H1554.07L1509.91 64.212V117H1471.73V0.799992H1503.93L1548.09 53.588V0.799992H1586.27ZM1723.01 0.799992V117H1690.8L1646.65 64.212V117H1608.47V0.799992H1640.67L1684.83 53.588V0.799992H1723.01ZM1859.74 0.799992V117H1827.54L1783.38 64.212V117H1745.2V0.799992H1777.41L1821.56 53.588V0.799992H1859.74Z" fill="#F66361"/>
<path d="M1183.56 86.622V117H1076.82V92.93L1129.94 31.178H1078.48V0.799992H1180.91V24.87L1127.79 86.622H1183.56Z" fill="#f7ba63"/>
</svg>
