<svg width="1440" height="117" viewBox="0 0 1440 117" fill="none" xmlns="http://www.w3.org/2000/svg">
<path d="M-1123 0.799992V117H-1155.2L-1199.36 64.212V117H-1237.54V0.799992H-1205.33L-1161.18 53.588V0.799992H-1123ZM-986.262 0.799992V117H-1018.47L-1062.62 64.212V117H-1100.8V0.799992H-1068.6L-1024.44 53.588V0.799992H-986.262ZM-849.526 0.799992V117H-881.73L-925.886 64.212V117H-964.066V0.799992H-931.862L-887.706 53.588V0.799992H-849.526ZM-712.79 0.799992V117H-744.994L-789.15 64.212V117H-827.33V0.799992H-795.126L-750.97 53.588V0.799992H-712.79ZM-576.054 0.799992V117H-608.258L-652.414 64.212V117H-690.594V0.799992H-658.39L-614.234 53.588V0.799992H-576.054ZM-439.318 0.799992V117H-471.522L-515.678 64.212V117H-553.858V0.799992H-521.654L-477.498 53.588V0.799992H-439.318ZM-302.582 0.799992V117H-334.786L-378.942 64.212V117H-417.122V0.799992H-384.918L-340.762 53.588V0.799992H-302.582ZM-165.846 0.799992V117H-198.05L-242.206 64.212V117H-280.386V0.799992H-248.182L-204.026 53.588V0.799992H-165.846ZM-29.1098 0.799992V117H-61.3138L-105.47 64.212V117H-143.65V0.799992H-111.446L-67.2898 53.588V0.799992H-29.1098ZM107.626 0.799992V117H75.4222L31.2661 64.212V117H-6.91385V0.799992H25.2901L69.4461 53.588V0.799992H107.626ZM244.362 0.799992V117H212.158L168.002 64.212V117H129.822V0.799992H162.026L206.182 53.588V0.799992H244.362ZM381.098 0.799992V117H348.894L304.738 64.212V117H266.558V0.799992H298.762L342.918 53.588V0.799992H381.098ZM517.834 0.799992V117H485.63L441.474 64.212V117H403.294V0.799992H435.498L479.654 53.588V0.799992H517.834ZM654.57 0.799992V117H622.366L578.21 64.212V117H540.03V0.799992H572.234L616.39 53.588V0.799992H654.57ZM791.306 0.799992V117H759.102L714.946 64.212V117H676.766V0.799992H708.97L753.126 53.588V0.799992H791.306ZM928.042 0.799992V117H895.838L851.682 64.212V117H813.502V0.799992H845.706L889.862 53.588V0.799992H928.042ZM1064.78 0.799992V117H1032.57L988.418 64.212V117H950.238V0.799992H982.442L1026.6 53.588V0.799992H1064.78ZM1189.56 86.622V117H1082.82V92.93L1135.94 31.178H1084.48V0.799992H1186.91V24.87L1133.79 86.622H1189.56ZM1318.8 0.799992V117H1286.59L1242.44 64.212V117H1204.26V0.799992H1236.46L1280.62 53.588V0.799992H1318.8ZM1455.53 0.799992V117H1423.33L1379.17 64.212V117H1340.99V0.799992H1373.2L1417.35 53.588V0.799992H1455.53ZM1592.27 0.799992V117H1560.07L1515.91 64.212V117H1477.73V0.799992H1509.93L1554.09 53.588V0.799992H1592.27ZM1729.01 0.799992V117H1696.8L1652.65 64.212V117H1614.47V0.799992H1646.67L1690.83 53.588V0.799992H1729.01ZM1865.74 0.799992V117H1833.54L1789.38 64.212V117H1751.2V0.799992H1783.41L1827.56 53.588V0.799992H1865.74Z" fill="#121115"/>
</svg>
